<svg xmlns="http://www.w3.org/2000/svg" width="191" height="128" viewBox="0 0 191 128">
    <g fill="none" fill-rule="evenodd">
        <g fill="#FFE6D1">
            <g>
                <g>
                    <path d="M-133.977 346.113c18.888-44.017-18.146-44.038-13.314-88.333 4.831-44.296 42.05-44.922 41.511-82.222-.539-37.3 28.86-69.698 60.45-70.662 31.591-.964 45.674 6.928 72.302 32.653 26.628 25.726 40.173 13.485 73.931 36.16 33.758 22.675 52.934 73.29 45.44 107.425-7.495 34.135-33.527 61.105-65.734 74.496-27.141 11.285-44.171 9.431-72.765 29.487-28.593 20.056-20.73 31.043-48.953 50.715-28.224 19.673-62.999 4.995-81.162-12.553-18.164-17.548-30.594-33.15-11.706-77.166z" transform="translate(-19 -515) translate(19 253) translate(0 115) rotate(-119 .113 275.02)"/>
                </g>
            </g>
        </g>
    </g>
</svg>
