<svg xmlns="http://www.w3.org/2000/svg" xmlns:xlink="http://www.w3.org/1999/xlink" width="40" height="40" viewBox="0 0 40 40">
    <defs>
        <path id="86dj6q2uia" d="M28.5 1.521c-.4-.4-.944-.626-1.51-.626-.568 0-1.111.225-1.511.626L15 11.98 4.521 1.5c-.4-.401-.943-.627-1.51-.627-.567 0-1.11.226-1.511.627-.836.836-.836 2.186 0 3.021L11.979 15 1.5 25.479c-.836.835-.836 2.185 0 3.021.836.836 2.186.836 3.021 0L15 18.021 25.479 28.5c.835.836 2.185.836 3.021 0 .836-.836.836-2.186 0-3.021L18.021 15 28.5 4.521c.814-.814.814-2.185 0-3z"/>
    </defs>
    <g fill="none" fill-rule="evenodd">
        <g>
            <g>
                <g transform="translate(-481 -1070) translate(419 445) rotate(45 -711.977 410.876)">
                    <use fill="#000" fill-rule="nonzero" xlink:href="#86dj6q2uia"/>
                </g>
            </g>
        </g>
    </g>
</svg>
