<svg xmlns="http://www.w3.org/2000/svg" xmlns:xlink="http://www.w3.org/1999/xlink" width="30" height="30" viewBox="0 0 30 30">
    <defs>
        <path id="0f722ljvna" d="M22.875 7.137c-.234-.234-.55-.365-.881-.365-.33 0-.648.131-.881.365L15 13.237 8.887 7.125c-.233-.234-.55-.366-.88-.366-.331 0-.648.132-.882.366-.487.487-.487 1.275 0 1.762L13.238 15l-6.113 6.112c-.487.488-.487 1.275 0 1.763.487.487 1.275.487 1.762 0L15 16.762l6.113 6.113c.487.487 1.274.487 1.762 0 .488-.488.488-1.275 0-1.763L16.762 15l6.113-6.113c.475-.475.475-1.275 0-1.75z"/>
    </defs>
    <g fill="none" fill-rule="evenodd">
        <mask id="c22su80yob" fill="#fff">
            <use xlink:href="#0f722ljvna"/>
        </mask>
        <g fill="#000" fill-opacity=".87" mask="url(#c22su80yob)">
            <path d="M0 0H30V30H0z"/>
        </g>
    </g>
</svg>
