<svg xmlns="http://www.w3.org/2000/svg" width="28" height="24" viewBox="0 0 28 24">
    <g>
        <path d="M21.875 12h-3.977c-.55 0-.995.448-.995 1v4c0 .553.445 1 .995 1h3.977c.55 0 .994-.447.994-1v-4c0-.552-.444-1-.994-1z"/>
        <path d="M27.83 4.945c-.005-.092-.023-.182-.055-.271-.009-.027-.015-.053-.026-.079-.006-.014-.007-.029-.013-.042-.047-.093-.108-.174-.177-.246l-.01-.014-3.978-4C23.386.105 23.134 0 22.87 0H4.972c-.264 0-.517.105-.703.293l-3.978 4c-.004.004-.005.01-.009.014-.07.072-.13.153-.178.246-.006.013-.007.028-.014.042-.01.025-.016.051-.025.078-.031.09-.05.18-.054.273C.01 4.965 0 4.981 0 5v16c0 1.654 1.338 3 2.983 3h21.875c1.645 0 2.983-1.346 2.983-3V5c0-.019-.01-.036-.011-.055zM5.383 2h17.075l1.988 2H3.395l1.988-2zm20.47 19c0 .552-.446 1-.995 1H13.92v-9c0-.552-.445-1-.994-1h-6.96c-.549 0-.994.448-.994 1v9H2.983c-.548 0-.994-.448-.994-1V8l1.193 1.6c.375.504 1.216.504 1.59 0l1.691-2.267L8.153 9.6c.375.504 1.216.504 1.591 0l1.69-2.267L13.126 9.6c.375.504 1.216.504 1.59 0l1.691-2.267 1.69 2.267c.375.504 1.217.504 1.591 0l1.69-2.267L23.069 9.6c.187.252.482.4.796.4.313 0 .607-.148.795-.4L25.852 8v13z"/>
    </g>
</svg>
