<svg xmlns="http://www.w3.org/2000/svg" width="24" height="27" viewBox="0 0 24 27">
    <g>
        <path d="M12 .14C5.498.14.195 5.485.195 12.038v12.207c0 1.012.558 1.94 1.48 2.362.362.169.753.253 1.116.253.586 0 1.172-.197 1.646-.59l2.903-2.363H12c6.502 0 11.805-5.343 11.805-11.897C23.805 5.456 18.502.141 12 .141zm0 21.46H6.92c-.25 0-.53.084-.725.253L3.014 24.47c-.14.112-.251.084-.335.028-.084-.028-.167-.113-.167-.281V12.037c0-5.287 4.27-9.562 9.488-9.562 5.219 0 9.488 4.303 9.488 9.563 0 5.259-4.241 9.562-9.488 9.562z"/>
        <path d="M8.4 8.55h7.2c.642 0 1.144-.506 1.144-1.153s-.502-1.153-1.144-1.153H8.4c-.642 0-1.144.506-1.144 1.153S7.758 8.55 8.4 8.55zM18.307 10.884H5.693c-.642 0-1.144.507-1.144 1.153 0 .647.502 1.154 1.144 1.154h12.614c.642 0 1.144-.507 1.144-1.154 0-.646-.502-1.153-1.144-1.153zM15.6 15.497H8.4c-.642 0-1.144.506-1.144 1.153s.502 1.153 1.144 1.153h7.2c.642 0 1.144-.506 1.144-1.153s-.502-1.153-1.144-1.153z"/>
    </g>
</svg>
