<svg xmlns="http://www.w3.org/2000/svg" width="22" height="24" viewBox="0 0 22 24">
    <path fill="#000000" d="M7.69 12.24v7.881c0 1.848 1.497 3.346 3.345 3.346s3.345-1.498 3.345-3.346V12.24l6.842-8.757c.433-.555.512-1.307.204-1.94-.308-.631-.95-1.033-1.653-1.034H2.296C1.593.509.952.91.644 1.543c-.308.632-.23 1.384.203 1.939l6.842 8.757zm10.822-9.277l-6.326 8.104c-.169.215-.26.48-.261.755v8.3c0 .491-.399.89-.89.89-.492 0-.89-.399-.89-.89v-8.303c-.001-.273-.093-.538-.261-.752L3.558 2.963h14.954z"/>
</svg>
