<svg xmlns="http://www.w3.org/2000/svg" width="16" height="16" viewBox="0 0 16 16">
    <g fill="none" fill-rule="evenodd">
        <g>
            <g>
                <g>
                    <g>
                        <path d="M1 0H15V14H1z" transform="translate(-794 -490) translate(787 452) translate(0 35) translate(7 3)"/>
                        <path fill="#F6F6F6" fill-rule="nonzero" d="M2 16c-.6 0-1-.444-1-1.111V8H.16c-.064 0-.128-.057-.151-.125L0 7.822V5.333c0-.533.32-.889.8-.889h2.24C2.64 4 2.4 3.378 2.4 2.667 2.4 1.156 3.44 0 4.8 0 5.6 0 7.04.8 8 1.867 8.96.8 10.4 0 11.2 0c1.36 0 2.4 1.156 2.4 2.667 0 .71-.24 1.333-.64 1.777h2.24c.48 0 .8.356.8.89v2.488c0 .09-.08.178-.16.178H15v6.883c0 .625-.348 1.056-.883 1.111L14 16zM4.8 1.778c-.48 0-.8.355-.8.889 0 .533.32.889.8.889 0 0 2.08-.09 2.32-.178-.4-.534-1.84-1.6-2.32-1.6zm6.4 0c-.48 0-1.84.978-2.32 1.6.24.089 2.32.178 2.32.178.48 0 .8-.356.8-.89 0-.533-.32-.888-.8-.888z" transform="translate(-794 -490) translate(787 452) translate(0 35) translate(7 3)"/>
                    </g>
                </g>
            </g>
        </g>
    </g>
</svg>
