<svg xmlns="http://www.w3.org/2000/svg" xmlns:xlink="http://www.w3.org/1999/xlink" width="24" height="24" viewBox="0 0 24 24">
    <defs>
        <path id="prefix__a" d="M17.134 12.218c-.25.813-.755 1.599-1.5 2.33-.671.662-1.107 1.522-1.268 2.432h-1.374v-4.956c0-.414-.337-.75-.75-.75-.415 0-.75.336-.75.75v4.956h-1.378c-.167-.954-.634-1.848-1.36-2.522C7.313 13.12 6.77 11.09 7.338 9.157c.598-2.034 2.39-3.438 4.567-3.578.113-.007.224-.01.336-.01.122 0 .244.004.367.012 1.534.107 2.98.942 3.869 2.234.894 1.302 1.128 2.866.657 4.403zm-2.82 8.459c-.03.03-.095.082-.194.082h-3.552c-.191 0-.345-.151-.354-.34h4.173l.002.06c.005.1-.045.167-.074.198zm.004-2.197l.014.439h-4.13l-.004-.44h4.12zm3.394-11.515c-1.145-1.666-3.015-2.743-5.002-2.88-.304-.02-.599-.022-.903-.002-2.812.18-5.13 2.006-5.909 4.65-.73 2.484-.026 5.098 1.837 6.825.61.565.96 1.357.96 2.177l.015 2.679c.007 1.018.84 1.845 1.857 1.845h3.553c.486 0 .938-.192 1.274-.541.336-.35.511-.808.495-1.293l-.1-2.708c.005-.777.33-1.541.897-2.098.925-.91 1.558-1.907 1.881-2.962.6-1.955.288-4.03-.855-5.692z"/>
    </defs>
    <g fill="none" fill-rule="evenodd">
        <mask id="prefix__b" fill="#fff">
            <use xlink:href="#prefix__a"/>
        </mask>
        <g fill="#000" fill-opacity=".54" mask="url(#prefix__b)">
            <path d="M0 0H24V24H0z"/>
        </g>
    </g>
</svg>
