<svg xmlns="http://www.w3.org/2000/svg" xmlns:xlink="http://www.w3.org/1999/xlink" width="24" height="24" viewBox="0 0 24 24">
    <defs>
        <filter id="prefix__a" width="200%" height="200%" x="-50%" y="-50%" filterUnits="objectBoundingBox">
            <feOffset dy="2" in="SourceAlpha" result="shadowOffsetOuter1"/>
            <feGaussianBlur in="shadowOffsetOuter1" result="shadowBlurOuter1" stdDeviation="2"/>
            <feColorMatrix in="shadowBlurOuter1" result="shadowMatrixOuter1" values="0 0 0 0 0.994536911 0 0 0 0 0.659065509 0 0 0 0 0.0462020006 0 0 0 0.5 0"/>
            <feMerge>
                <feMergeNode in="shadowMatrixOuter1"/>
                <feMergeNode in="SourceGraphic"/>
            </feMerge>
        </filter>
        <path id="prefix__b" d="M11.807 4.083c.304-.02.6-.018.903.002 1.986.137 3.857 1.214 5.002 2.88 1.143 1.663 1.454 3.737.855 5.692-.323 1.055-.956 2.052-1.881 2.962-.567.557-.893 1.32-.896 2.098l.099 2.708c.017.485-.159.944-.495 1.293-.337.349-.789.54-1.274.54h-3.552c-1.018 0-1.85-.826-1.857-1.844l-.017-2.68c0-.82-.35-1.611-.96-2.176C5.872 13.83 5.168 11.217 5.9 8.734c.777-2.645 3.096-4.471 5.908-4.651zm2.58 16.336h-4.174c.01.189.164.34.355.34h3.553c.098 0 .163-.052.194-.082.029-.031.079-.098.075-.198l-.003-.06zm-.07-1.94h-4.119l.003.44h4.131l-.014-.44zM12.242 5.57c-.112 0-.223.003-.336.01-2.178.14-3.97 1.544-4.567 3.578-.569 1.933-.026 3.964 1.416 5.3.726.675 1.194 1.569 1.36 2.523h1.377v-4.956c0-.414.337-.75.75-.75.415 0 .75.336.75.75v4.956h1.376c.16-.91.595-1.77 1.266-2.431.747-.732 1.252-1.518 1.5-2.331.472-1.537.238-3.101-.656-4.403-.89-1.292-2.335-2.127-3.87-2.234-.122-.008-.244-.012-.366-.012zm9.243 4.704c.552 0 1 .448 1 1 0 .553-.448 1-1 1-.553 0-1-.447-1-1 0-.552.447-1 1-1zM3 10.273c.553 0 1 .448 1 1 0 .553-.447 1-1 1-.552 0-1-.447-1-1 0-.552.448-1 1-1zm1.613-6.455c.552 0 1 .448 1 1 0 .553-.448 1-1 1-.553 0-1-.447-1-1 0-.552.447-1 1-1zm15.259 0c.552 0 1 .448 1 1 0 .553-.448 1-1 1-.553 0-1-.447-1-1 0-.552.447-1 1-1zM12.242 1c.553 0 1 .447 1 1 0 .552-.447 1-1 1-.552 0-1-.448-1-1 0-.553.448-1 1-1z"/>
    </defs>
    <g fill="none" fill-rule="evenodd" filter="url(#prefix__a)">
        <mask id="prefix__c" fill="#fff">
            <use xlink:href="#prefix__b"/>
        </mask>
        <g fill="#FF9100" mask="url(#prefix__c)">
            <path d="M0 0H24V24H0z"/>
        </g>
    </g>
</svg>
