<svg xmlns="http://www.w3.org/2000/svg" width="22" height="22" viewBox="0 0 22 22">
    <g fill="none">
        <path d="M21.323 3.647c-4.89-4.873-12.803-4.86-17.676.03-4.873 4.89-4.86 12.803.03 17.676 4.89 4.873 12.803 4.86 17.676-.03 4.873-4.89 4.86-12.803-.03-17.676zm-3.351 14.306c-1.447 1.452-3.41 2.269-5.459 2.272-2.049.004-4.015-.807-5.466-2.253-1.452-1.447-2.269-3.41-2.272-5.459-.004-2.049.807-4.015 2.253-5.466 1.447-1.452 3.41-2.269 5.459-2.272 2.049-.004 4.015.807 5.466 2.253 1.452 1.447 2.269 3.41 2.272 5.459.004 2.049-.807 4.015-2.253 5.466z" transform="translate(-3)"/>
        <path d="M21.323 3.647c-4.89-4.873-12.803-4.86-17.676.03-4.873 4.89-4.86 12.803.03 17.676 4.89 4.873 12.803 4.86 17.676-.03 4.873-4.89 4.86-12.803-.03-17.676zm-3.351 14.306c-1.447 1.452-3.41 2.269-5.459 2.272-2.049.004-4.015-.807-5.466-2.253-1.452-1.447-2.269-3.41-2.272-5.459-.004-2.049.807-4.015 2.253-5.466 1.447-1.452 3.41-2.269 5.459-2.272 2.049-.004 4.015.807 5.466 2.253 1.452 1.447 2.269 3.41 2.272 5.459.004 2.049-.807 4.015-2.253 5.466z" opacity=".75" transform="translate(-3)"/>
        <path fill="#FFF" d="M21.49 21.187c.047-.047.088-.095.13-.144 4.54-4.938 4.373-12.579-.378-17.314C16.491-1.006 8.85-1.147 3.927 3.41c-.05.042-.099.083-.145.13l-.044.048c-.015.017-.061.057-.091.089-.897.975-.834 2.493.141 3.39.976.897 2.493.833 3.39-.142.049-.048.092-.098.135-.15 3.048-2.764 7.728-2.654 10.643.25 2.914 2.905 3.04 7.584.287 10.642-.051.043-.101.086-.15.135-.908.91-.935 2.376-.062 3.32.874.944 2.337 1.03 3.316.195.031-.03.058-.062.09-.094l.053-.036z" transform="translate(-3)"/>
    </g>
</svg>
