<svg xmlns="http://www.w3.org/2000/svg" width="14" height="14" viewBox="0 0 14 14">
    <g fill="none" fill-rule="evenodd">
        <g fill="#000">
            <g>
                <g>
                    <g>
                        <path d="M0 6.623C0 2.965 2.965 0 6.623 0c3.658 0 6.623 2.965 6.623 6.623 0 3.658-2.965 6.623-6.623 6.623C2.965 13.246 0 10.281 0 6.623zM6.623.95C3.49.95.95 3.49.95 6.623s2.54 5.673 5.673 5.673 5.673-2.54 5.673-5.673S9.756.95 6.623.95zm.75 8.673c0 .414-.336.75-.75.75s-.75-.336-.75-.75.336-.75.75-.75.75.336.75.75zm-2.2-4.25c0-.678.585-1.325 1.45-1.325s1.45.647 1.45 1.325c0 .491-.27.742-.736 1.025-.051.032-.111.066-.176.104-.195.108-.384.228-.564.36-.242.188-.524.493-.524.961-.001.304.244.55.548.552.304.001.55-.244.552-.548.028-.038.062-.07.1-.098.102-.079.215-.144.366-.232.078-.045.167-.097.27-.159.534-.325 1.264-.861 1.264-1.965 0-1.322-1.115-2.425-2.55-2.425-1.435 0-2.55 1.103-2.55 2.425 0 .304.246.55.55.55.304 0 .55-.246.55-.55z" transform="translate(-851 -1054) translate(787 1047) translate(13 7) translate(51)"/>
                    </g>
                </g>
            </g>
        </g>
    </g>
</svg>
