<svg xmlns="http://www.w3.org/2000/svg" width="6.6929in" height="2.75597in" version="1.1" style="shape-rendering:geometricPrecision; text-rendering:geometricPrecision; image-rendering:optimizeQuality; fill-rule:evenodd; clip-rule:evenodd"
viewBox="0 0 6693 2756"
 xmlns:xlink="http://www.w3.org/1999/xlink">
 <defs>
  <style type="text/css">
   <![CDATA[
    .fil0 {fill:black;fill-rule:nonzero}
   ]]>
  </style>
 </defs>
 <g id="__x0023_Layer_x0020_1">
  <metadata id="CorelCorpID_0Corel-Layer"/>
  <g id="_285149592">
   <path class="fil0" d="M3346 397c-194,0 -353,158 -353,353 0,194 158,353 353,353 194,0 353,-158 353,-353 0,-194 -158,-353 -353,-353zm0 88l0 0c147,0 265,118 265,265 0,147 -118,265 -265,265 -147,0 -265,-118 -265,-265 0,-147 118,-265 265,-265zm0 706l0 0c-215,0 -409,52 -553,137 -144,85 -240,208 -240,348l0 88c0,24 20,44 44,44l1499 0c24,0 44,-20 44,-44l0 -88c0,-140 -97,-263 -240,-348 -144,-85 -338,-137 -553,-137zm0 88l0 0c200,0 381,49 508,125 127,75 198,173 198,272l0 44 -1411 0 0 -44c0,-99 71,-197 198,-272 127,-75 307,-125 508,-125z"/>
  </g>
 </g>
</svg>
