<svg xmlns="http://www.w3.org/2000/svg" width="24" height="24" viewBox="0 0 24 24">
    <g fill="none" fill-rule="evenodd">
        <path d="M0 0H24V24H0z"/>
        <g fill="#FFF" fill-rule="nonzero">
            <path d="M18.717 3.783c-.311-.31-.736-.472-1.179-.442l-7.027.467c-.369.025-.716.182-.977.444L.446 13.34c-.593.594-.593 1.56 0 2.153l6.56 6.56c.297.298.687.446 1.078.446.39 0 .78-.148 1.077-.445l9.088-9.088c.262-.261.419-.608.443-.976l.468-7.028c.029-.439-.133-.868-.443-1.179zm-4.636 7.884c-.434.434-1.011.673-1.625.673-.613 0-1.19-.24-1.624-.673-.433-.433-.672-1.01-.672-1.623 0-.614.24-1.191.673-1.625.866-.866 2.38-.865 3.248.001.432.433.672 1.01.672 1.624 0 .613-.238 1.19-.672 1.623z" transform="translate(.75 .75)"/>
            <path d="M18.47 4.78c-.192 0-.384-.074-.53-.22-.293-.293-.293-.767 0-1.06L21.22.22c.293-.293.767-.293 1.06 0 .293.293.293.767 0 1.06L19 4.56c-.146.146-.338.22-.53.22z" transform="translate(.75 .75)"/>
        </g>
    </g>
</svg>
