<svg xmlns="http://www.w3.org/2000/svg" width="24" height="23" viewBox="0 0 24 23">
    <g fill="none" fill-rule="evenodd">
        <g fill="#F6F6F6" fill-rule="nonzero">
            <g>
                <g>
                    <path d="M121.372 22.588c-.263 0-.524-.08-.747-.239-.415-.295-.61-.803-.496-1.293l1.544-6.68-5.236-4.51c-.385-.33-.532-.852-.374-1.33.158-.477.588-.815 1.097-.862l6.928-.617L126.827.76C127.029.3 127.489 0 128 0s.971.299 1.173.76l2.74 6.297 6.926.617c.51.046.94.385 1.098.862.158.477.012 1-.373 1.33l-5.236 4.51 1.544 6.679c.113.491-.08.999-.496 1.294-.414.294-.966.317-1.402.06L128 18.901l-5.974 3.508c-.202.118-.427.178-.654.178z" transform="translate(-940 -202) translate(787 194) translate(37 8)"/>
                </g>
            </g>
        </g>
    </g>
</svg>
