<svg xmlns="http://www.w3.org/2000/svg" width="19" height="20" viewBox="0 0 19 20">
    <path fill="#FFA300" d="M13.136 5.916H4.69c-.518 0-.938-.441-.938-.986 0-.544.42-.986.938-.986h8.445c.518 0 .938.442.938.986 0 .545-.42.986-.938.986zm1.876 6.902H13.52l.282-.286c.368-.386.368-1.013 0-1.4-.368-.386-.965-.386-1.333 0l-1.876 1.972c-.085.094-.152.204-.197.326-.094.24-.094.509 0 .749.045.12.112.231.197.325l1.876 1.972c.177.187.416.292.667.292.25 0 .49-.105.666-.292.177-.185.277-.437.277-.7 0-.263-.1-.515-.277-.7l-.282-.286h1.492c.518 0 .938-.441.938-.986 0-.544-.42-.986-.938-.986zm3.988.986c.013 2.609-1.538 4.944-3.873 5.83-2.335.885-4.948.13-6.523-1.886-.053.005-.107.005-.16 0H2.712C1.243 17.776.03 16.55 0 15.008V2.74C.03 1.2 1.243-.027 2.712.001h12.403c1.468-.028 2.681 1.198 2.712 2.74v7.12c.004.068.004.137 0 .206.77 1.077 1.182 2.39 1.173 3.737zm-5.864-6.162c.984-.002 1.953.26 2.814.759v-5.66c-.03-.453-.403-.797-.835-.769H2.712c-.433-.028-.805.316-.835.77v12.265c.03.454.402.797.835.77h4.87c-.605-1.881-.31-3.953.79-5.566 1.102-1.612 2.875-2.569 4.764-2.57zm3.987 6.162c0-2.314-1.785-4.19-3.987-4.19-2.203 0-3.988 1.876-3.988 4.19 0 2.315 1.785 4.19 3.988 4.19 2.2-.005 3.982-1.878 3.987-4.19z"/>
</svg>
