<svg xmlns="http://www.w3.org/2000/svg" xmlns:xlink="http://www.w3.org/1999/xlink" width="30" height="30" viewBox="0 0 30 30">
    <defs>
        <path id="prefix__a" d="M19.97 18.09h-.987l-.35-.338c1.5-1.75 2.275-4.138 1.85-6.675-.587-3.475-3.487-6.25-6.987-6.675-5.288-.65-9.738 3.8-9.088 9.087.425 3.5 3.2 6.4 6.675 6.988 2.538.425 4.925-.35 6.675-1.85l.338.35v.987l5.312 5.313c.513.512 1.35.512 1.863 0 .512-.513.512-1.35 0-1.863l-5.3-5.325zm-7.5 0c-3.112 0-5.624-2.513-5.624-5.626 0-3.112 2.512-5.625 5.625-5.625 3.112 0 5.625 2.513 5.625 5.625 0 3.113-2.513 5.625-5.625 5.625z"/>
    </defs>
    <g fill="none" fill-rule="evenodd">
        <mask id="prefix__b" fill="#fff">
            <use xlink:href="#prefix__a"/>
        </mask>
        <g fill="#000" fill-opacity=".87" mask="url(#prefix__b)">
            <path d="M0 0H30V30H0z"/>
        </g>
    </g>
</svg>
