<svg xmlns="http://www.w3.org/2000/svg" width="20" height="20" viewBox="0 0 20 20">
    <path fill="#FFA300" d="M18.568 12.296C18.776 11.517 20 10.845 20 10c0-.845-1.224-1.517-1.432-2.296-.215-.806.502-2 .094-2.705-.415-.716-1.81-.689-2.391-1.27-.581-.58-.554-1.976-1.27-2.39-.706-.409-1.899.308-2.705.093C11.517 1.224 10.845 0 10 0c-.845 0-1.517 1.224-2.296 1.432-.806.215-2-.502-2.705-.094-.716.415-.689 1.81-1.27 2.391-.58.581-1.976.554-2.39 1.27-.409.706.308 1.899.093 2.705C1.224 8.483 0 9.155 0 10c0 .845 1.224 1.517 1.432 2.296.215.806-.502 2-.094 2.705.415.716 1.81.689 2.391 1.27.581.58.554 1.976 1.27 2.39.706.409 1.899-.308 2.705-.093C8.483 18.776 9.155 20 10 20c.845 0 1.517-1.224 2.296-1.432.806-.215 2 .502 2.705.094.716-.415.689-1.81 1.27-2.391.58-.581 1.976-.554 2.39-1.27.409-.706-.309-1.899-.093-2.705zM8.748 13L6 10.061l1.335-1.427 1.453 1.552L12.704 6 14 7.386 8.749 13z"/>
</svg>
