<svg xmlns="http://www.w3.org/2000/svg" xmlns:xlink="http://www.w3.org/1999/xlink" width="32" height="32" viewBox="0 0 32 32">
    <defs>
        <path id="prefix__a" d="M0 0L32 0 32 32 0 32z"/>
    </defs>
    <g fill="none" fill-rule="evenodd">
        <mask id="prefix__b" fill="#fff">
            <use xlink:href="#prefix__a"/>
        </mask>
        <path fill="#FFF" d="M24.541 5.54a1.92 1.92 0 10-.001 3.841 1.92 1.92 0 00.001-3.841M16 21.333a5.333 5.333 0 110-10.666 5.334 5.334 0 010 10.666m0-13.549A8.215 8.215 0 007.784 16a8.217 8.217 0 1016.432 0A8.215 8.215 0 0016 7.784M16 0c-4.345 0-4.89.017-6.596.096C3.594.361.364 3.586.097 9.401.02 11.111 0 11.655 0 16c0 4.345.019 4.89.096 6.597.267 5.81 3.49 9.039 9.307 9.306C11.11 31.98 11.655 32 16 32c4.347 0 4.89-.02 6.597-.097 5.806-.267 9.043-3.491 9.306-9.306C31.98 20.891 32 20.345 32 16c0-4.345-.019-4.89-.096-6.597-.261-5.804-3.49-9.04-9.305-9.306C20.89.017 20.347 0 16 0m0 2.884c4.272 0 4.779.016 6.467.092 4.336.199 6.361 2.256 6.558 6.559.078 1.688.092 2.194.092 6.466 0 4.274-.016 4.779-.092 6.464-.198 4.302-2.218 6.363-6.558 6.559-1.688.079-2.192.095-6.467.095-4.272 0-4.779-.016-6.465-.095-4.347-.197-6.362-2.265-6.559-6.56-.077-1.685-.093-2.19-.093-6.464 0-4.272.018-4.777.093-6.467.199-4.301 2.219-6.36 6.559-6.558 1.688-.075 2.193-.091 6.465-.091" mask="url(#prefix__b)"/>
    </g>
</svg>
