<svg xmlns="http://www.w3.org/2000/svg" width="17" height="16" viewBox="0 0 17 16">
    <g fill="none" fill-rule="evenodd">
        <g fill="#FFF" fill-rule="nonzero">
            <g>
                <g>
                    <path d="M15.805 26c-.186 0-.371-.057-.53-.17-.293-.208-.43-.568-.35-.915l1.093-4.732-3.709-3.194c-.272-.234-.377-.604-.265-.943.112-.338.417-.577.777-.61l4.908-.438 1.94-4.459c.143-.327.469-.539.83-.539.363 0 .689.212.832.538l1.94 4.46 4.907.438c.361.032.666.272.778.61.111.338.008.71-.265.943l-3.709 3.194 1.094 4.73c.08.349-.057.709-.351.917-.293.209-.685.225-.993.043L20.5 23.389l-4.232 2.485c-.143.083-.302.126-.463.126z" transform="translate(-784 -1219) translate(755 1205) translate(17 4)"/>
                </g>
            </g>
        </g>
    </g>
</svg>
